<svg width="156" height="32" viewBox="0 0 156 32" fill="none" xmlns="http://www.w3.org/2000/svg">
<path fill-rule="evenodd" clip-rule="evenodd" d="M20.5769 2.61355C18.5324 -0.871183 13.4943 -0.871185 11.4497 2.61355L11.3754 2.74011C10.4322 4.34773 8.71272 5.34048 6.84887 5.35354L6.70213 5.35456C2.66197 5.38285 0.142927 9.74597 2.1385 13.259L2.21098 13.3866C3.1316 15.0072 3.1316 16.9928 2.21098 18.6134L2.1385 18.741C0.142927 22.2541 2.66197 26.6171 6.70213 26.6454L6.84887 26.6464C8.71271 26.6595 10.4322 27.6523 11.3754 29.2598L11.4497 29.3864C13.4943 32.8712 18.5324 32.8712 20.5769 29.3864L20.6512 29.2598C21.5945 27.6523 23.3139 26.6595 25.1777 26.6464L25.3246 26.6454C29.3648 26.6171 31.8838 22.2541 29.8881 18.741L29.8156 18.6134C28.895 16.9928 28.895 15.0072 29.8156 13.3866L29.8881 13.259C31.8838 9.74597 29.3648 5.38285 25.3246 5.35456L25.1777 5.35354C23.3139 5.34048 21.5945 4.34773 20.6512 2.74011L20.5769 2.61355ZM16.0134 23.9366C20.3966 23.9366 23.95 20.3834 23.95 16C23.95 11.6167 20.3966 8.06328 16.0134 8.06328C11.63 8.06328 8.07661 11.6167 8.07661 16C8.07661 20.3834 11.63 23.9366 16.0134 23.9366Z" fill="white"/>
<path d="M60.9213 11.8399H57.2731C57.1327 11.0604 56.8716 10.3744 56.4896 9.78191C56.1076 9.18946 55.6399 8.68665 55.0864 8.27348C54.5329 7.86032 53.9132 7.5485 53.2272 7.33802C52.549 7.12755 51.8279 7.02231 51.0639 7.02231C49.6841 7.02231 48.4485 7.36921 47.3572 8.06301C46.2736 8.75681 45.4161 9.77412 44.7847 11.1149C44.161 12.4558 43.8492 14.0928 43.8492 16.0261C43.8492 17.975 44.161 19.6198 44.7847 20.9607C45.4161 22.3015 46.2775 23.3149 47.3689 24.0009C48.4602 24.6869 49.688 25.0299 51.0522 25.0299C51.8084 25.0299 52.5256 24.9286 53.2038 24.7259C53.8898 24.5154 54.5095 24.2075 55.063 23.8021C55.6165 23.3968 56.0842 22.9017 56.4662 22.3171C56.856 21.7246 57.1249 21.0464 57.2731 20.2825L60.9213 20.2941C60.7265 21.4713 60.3484 22.5548 59.7871 23.5449C59.2336 24.5271 58.5203 25.3768 57.6472 26.094C56.7819 26.8034 55.7919 27.353 54.6772 27.7427C53.5624 28.1325 52.3463 28.3274 51.0289 28.3274C48.9553 28.3274 47.1077 27.8363 45.4863 26.8541C43.8648 25.864 42.5863 24.4491 41.6509 22.6094C40.7232 20.7697 40.2594 18.5752 40.2594 16.0261C40.2594 13.4692 40.7271 11.2748 41.6626 9.44281C42.598 7.60307 43.8765 6.19209 45.498 5.20985C47.1194 4.21982 48.9631 3.72481 51.0289 3.72481C52.2995 3.72481 53.4844 3.908 54.5836 4.27439C55.6906 4.63299 56.6845 5.16308 57.5654 5.86467C58.4463 6.55847 59.1752 7.40818 59.752 8.4138C60.3289 9.41163 60.7187 10.5537 60.9213 11.8399ZM68.4606 4.05222V28H64.9643V4.05222H68.4606ZM73.1642 28V10.0392H76.6605V28H73.1642ZM74.9299 7.26786C74.3218 7.26786 73.7995 7.06518 73.363 6.65981C72.9342 6.24665 72.7198 5.75554 72.7198 5.18647C72.7198 4.6096 72.9342 4.11848 73.363 3.71312C73.7995 3.29995 74.3218 3.09337 74.9299 3.09337C75.5379 3.09337 76.0563 3.29995 76.4851 3.71312C76.9216 4.11848 77.1399 4.6096 77.1399 5.18647C77.1399 5.75554 76.9216 6.24665 76.4851 6.65981C76.0563 7.06518 75.5379 7.26786 74.9299 7.26786ZM84.8604 17.3358V28H81.3641V10.0392H84.72V12.9625H84.9422C85.3554 12.0114 86.0024 11.2475 86.8833 10.6706C87.772 10.0937 88.8906 9.8053 90.2393 9.8053C91.4631 9.8053 92.535 10.0626 93.4549 10.5771C94.3748 11.0838 95.0881 11.8399 95.5948 12.8455C96.1015 13.8512 96.3548 15.0945 96.3548 16.5757V28H92.8585V16.9967C92.8585 15.6948 92.5194 14.6775 91.8412 13.9447C91.163 13.2041 90.2315 12.8339 89.0465 12.8339C88.2358 12.8339 87.5147 13.0093 86.8833 13.36C86.2597 13.7108 85.7646 14.2253 85.3982 14.9036C85.0397 15.574 84.8604 16.3847 84.8604 17.3358ZM108.609 28.3625C106.926 28.3625 105.456 27.9766 104.201 27.2049C102.946 26.4331 101.971 25.3534 101.278 23.9658C100.584 22.5782 100.237 20.9568 100.237 19.1014C100.237 17.2383 100.584 15.6091 101.278 14.2137C101.971 12.8183 102.946 11.7347 104.201 10.9629C105.456 10.1912 106.926 9.8053 108.609 9.8053C110.293 9.8053 111.763 10.1912 113.018 10.9629C114.273 11.7347 115.247 12.8183 115.941 14.2137C116.635 15.6091 116.982 17.2383 116.982 19.1014C116.982 20.9568 116.635 22.5782 115.941 23.9658C115.247 25.3534 114.273 26.4331 113.018 27.2049C111.763 27.9766 110.293 28.3625 108.609 28.3625ZM108.621 25.4275C109.712 25.4275 110.617 25.1391 111.334 24.5622C112.051 23.9853 112.581 23.2175 112.924 22.2586C113.275 21.2998 113.45 20.2435 113.45 19.0897C113.45 17.9438 113.275 16.8914 112.924 15.9326C112.581 14.9659 112.051 14.1903 111.334 13.6056C110.617 13.0209 109.712 12.7286 108.621 12.7286C107.522 12.7286 106.61 13.0209 105.885 13.6056C105.168 14.1903 104.634 14.9659 104.283 15.9326C103.94 16.8914 103.768 17.9438 103.768 19.0897C103.768 20.2435 103.94 21.2998 104.283 22.2586C104.634 23.2175 105.168 23.9853 105.885 24.5622C106.61 25.1391 107.522 25.4275 108.621 25.4275ZM135.638 10.0392L129.125 28H125.383L118.858 10.0392H122.612L127.161 23.8606H127.348L131.885 10.0392H135.638ZM143.636 28.3976C142.498 28.3976 141.469 28.1871 140.549 27.7661C139.63 27.3374 138.901 26.7176 138.363 25.9069C137.833 25.0962 137.568 24.1022 137.568 22.9251C137.568 21.9117 137.763 21.0776 138.152 20.4228C138.542 19.768 139.068 19.2496 139.731 18.8676C140.394 18.4856 141.134 18.1972 141.953 18.0023C142.771 17.8074 143.605 17.6593 144.455 17.5579C145.531 17.4332 146.404 17.3319 147.074 17.2539C147.745 17.1682 148.232 17.0317 148.536 16.8446C148.84 16.6575 148.992 16.3535 148.992 15.9326V15.8507C148.992 14.8295 148.704 14.0383 148.127 13.477C147.558 12.9157 146.708 12.6351 145.578 12.6351C144.4 12.6351 143.473 12.8962 142.795 13.4185C142.124 13.933 141.66 14.506 141.403 15.1374L138.117 14.3891C138.507 13.2977 139.076 12.4168 139.824 11.7464C140.581 11.0682 141.45 10.5771 142.432 10.273C143.414 9.96121 144.447 9.8053 145.531 9.8053C146.248 9.8053 147.008 9.89105 147.811 10.0626C148.622 10.2263 149.378 10.5303 150.079 10.9746C150.789 11.419 151.37 12.0543 151.822 12.8806C152.274 13.6992 152.5 14.7632 152.5 16.0729V28H149.086V25.5444H148.945C148.719 25.9966 148.38 26.4409 147.928 26.8774C147.476 27.314 146.895 27.6765 146.186 27.9649C145.476 28.2534 144.627 28.3976 143.636 28.3976ZM144.397 25.5912C145.363 25.5912 146.19 25.4002 146.876 25.0182C147.569 24.6362 148.096 24.1373 148.454 23.5215C148.82 22.8978 149.004 22.2313 149.004 21.5219V19.2067C148.879 19.3314 148.637 19.4483 148.279 19.5575C147.928 19.6588 147.526 19.7485 147.074 19.8264C146.622 19.8966 146.182 19.9628 145.753 20.0252C145.324 20.0798 144.966 20.1265 144.677 20.1655C143.999 20.2513 143.379 20.3955 142.818 20.5982C142.264 20.8009 141.82 21.0932 141.485 21.4752C141.158 21.8493 140.994 22.3483 140.994 22.9719C140.994 23.8372 141.313 24.492 141.953 24.9364C142.592 25.3729 143.407 25.5912 144.397 25.5912Z" fill="white"/>
</svg>
